<svg width="53" height="53" viewBox="0 0 53 53" fill="none" xmlns="http://www.w3.org/2000/svg">
<rect width="53" height="53" rx="26.5" fill="#26DA23"/>
<path d="M20.188 38.908C20.188 38.6307 20.1347 38.492 20.028 38.492L19.292 38.844C19.292 38.6947 19.2067 38.588 19.036 38.524L18.78 38.492C18.6093 38.492 18.396 38.5667 18.14 38.716C18.0973 38.6093 18.044 38.5027 17.98 38.396C17.916 38.2893 17.8627 38.1933 17.82 38.108C17.5427 37.5747 17.2653 36.988 16.988 36.348C16.732 35.6867 16.4867 35.0573 16.252 34.46C16.0387 33.8627 15.868 33.3933 15.74 33.052C15.6547 32.7747 15.5587 32.3587 15.452 31.804C15.3453 31.2493 15.2387 30.5453 15.132 29.692C15.3667 29.8413 15.548 29.916 15.676 29.916C15.8253 29.916 15.964 29.692 16.092 29.244C16.156 29.3293 16.2733 29.372 16.444 29.372C16.572 29.372 16.668 29.3293 16.732 29.244L17.244 28.476L17.82 28.668H17.852C17.8947 28.668 17.9373 28.6467 17.98 28.604C18.0227 28.5613 18.0867 28.5187 18.172 28.476C18.3427 28.3693 18.4707 28.316 18.556 28.316L18.652 28.348C19.1853 28.604 19.5267 29.0733 19.676 29.756C20.06 31.3773 20.444 32.188 20.828 32.188C21.212 32.188 21.66 31.7827 22.172 30.972C22.428 30.5667 22.684 30.0973 22.94 29.564C23.2173 29.0307 23.4947 28.4333 23.772 27.772C23.8147 28.028 23.8573 28.156 23.9 28.156C24.0067 28.156 24.188 27.8893 24.444 27.356C24.7213 26.8227 25.1587 26.0867 25.756 25.148C26.0973 24.572 26.524 23.9213 27.036 23.196C27.5693 22.4707 28.1347 21.724 28.732 20.956C29.3293 20.188 29.9053 19.4627 30.46 18.78C31.036 18.0973 31.548 17.5107 31.996 17.02C32.444 16.5293 32.7747 16.2093 32.988 16.06C33.7987 15.5053 34.4387 14.972 34.908 14.46C34.8867 14.6093 34.8547 14.748 34.812 14.876C34.7907 14.9827 34.78 15.0573 34.78 15.1C34.78 15.1853 34.8227 15.228 34.908 15.228L35.804 14.78V14.908C35.804 15.0787 35.8467 15.164 35.932 15.164C35.996 15.164 36.124 15.068 36.316 14.876C36.508 14.684 36.6147 14.5453 36.636 14.46L36.572 14.908L37.66 14.268L37.404 14.844C37.7453 14.6093 37.9907 14.492 38.14 14.492C38.2253 14.492 38.2893 14.5453 38.332 14.652C38.3747 14.7373 38.396 14.8227 38.396 14.908C38.396 15.036 38.3427 15.1853 38.236 15.356C38.1293 15.5267 37.9907 15.7293 37.82 15.964C37.692 16.1347 37.4787 16.3907 37.18 16.732C36.9027 17.052 36.476 17.532 35.9 18.172C35.324 18.7907 34.556 19.6547 33.596 20.764C33.34 21.0413 32.9453 21.532 32.412 22.236C31.8787 22.9187 31.2707 23.7187 30.588 24.636C29.9267 25.532 29.2653 26.4387 28.604 27.356C27.9427 28.2733 27.356 29.1053 26.844 29.852C26.332 30.5773 25.9693 31.1213 25.756 31.484L23.772 34.844C23.3453 35.5693 22.9933 36.1667 22.716 36.636C22.4387 37.084 22.2253 37.3933 22.076 37.564C21.756 37.948 21.404 38.2893 21.02 38.588L20.732 38.428L20.476 38.588L20.188 38.908Z" fill="white"/>
</svg>
